/* XPM */
static char *exit_open64[] = {
/* columns rows colors chars-per-pixel */
"64 64 4 1 ",
"  c black",
". c #2E0009",
"X c #6D3E0A",
"o c #8D5010",
/* pixels */
"XXXXXXXXXXXXXXXXXXXXooooXXXXXXXXXXXXXXXXooooXXXXXXXXXXXXXXXXXXXX",
"XXXXXXXXXXXXXXXXXXXXooooXXXXXXXXXXXXXXXXooooXXXXXXXXXXXXXXXXXXXX",
"XXXXXXXXXXXXXXXXXXXXooooXXXXXXXXXXXXXXXXooooXXXXXXXXXXXXXXXXXXXX",
"XXXXXXXXXXXXXXXXXXXXooooXXXXXXXXXXXXXXXXooooXXXXXXXXXXXXXXXXXXXX",
"XXXXooooooooXXXXXXXXXXXXXXXXooooXXXXXXXXXXXXXXXXXXXXooooooooXXXX",
"XXXXooooooooXXXXXXXXXXXXXXXXooooXXXXXXXXXXXXXXXXXXXXooooooooXXXX",
"XXXXooooooooXXXXXXXXXXXXXXXXooooXXXXXXXXXXXXXXXXXXXXooooooooXXXX",
"XXXXooooooooXXXXXXXXXXXXXXXXooooXXXXXXXXXXXXXXXXXXXXooooooooXXXX",
"XXXXXXXXXXXXooooXXXXXXXXXXXXXXXXXXXXXXXXooooXXXXXXXXXXXXXXXXXXXX",
"XXXXXXXXXXXXooooXXXXXXXXXXXXXXXXXXXXXXXXooooXXXXXXXXXXXXXXXXXXXX",
"XXXXXXXXXXXXooooXXXXXXXXXXXXXXXXXXXXXXXXooooXXXXXXXXXXXXXXXXXXXX",
"XXXXXXXXXXXXooooXXXXXXXXXXXXXXXXXXXXXXXXooooXXXXXXXXXXXXXXXXXXXX",
"XXXXooooooooXXXXXXXXXXXX................XXXXXXXXXXXXooooXXXXXXXX",
"XXXXooooooooXXXXXXXXXXXX................XXXXXXXXXXXXooooXXXXXXXX",
"XXXXooooooooXXXXXXXXXXXX................XXXXXXXXXXXXooooXXXXXXXX",
"XXXXooooooooXXXXXXXXXXXX................XXXXXXXXXXXXooooXXXXXXXX",
"ooooXXXXXXXXXXXXXXXX........................XXXXooooXXXXooooXXXX",
"ooooXXXXXXXXXXXXXXXX........................XXXXooooXXXXooooXXXX",
"ooooXXXXXXXXXXXXXXXX........................XXXXooooXXXXooooXXXX",
"ooooXXXXXXXXXXXXXXXX........................XXXXooooXXXXooooXXXX",
"XXXXXXXXXXXXXXXXXXXX............................XXXXXXXXXXXXXXXX",
"XXXXXXXXXXXXXXXXXXXX............................XXXXXXXXXXXXXXXX",
"XXXXXXXXXXXXXXXXXXXX............................XXXXXXXXXXXXXXXX",
"XXXXXXXXXXXXXXXXXXXX............................XXXXXXXXXXXXXXXX",
"XXXXooooXXXXooooXXXX............    ................XXXXXXXXXXXX",
"XXXXooooXXXXooooXXXX............    ................XXXXXXXXXXXX",
"XXXXooooXXXXooooXXXX............    ................XXXXXXXXXXXX",
"XXXXooooXXXXooooXXXX............    ................XXXXXXXXXXXX",
"XXXXXXXXXXXXXXXX........                ............ooooXXXXXXXX",
"XXXXXXXXXXXXXXXX........                ............ooooXXXXXXXX",
"XXXXXXXXXXXXXXXX........                ............ooooXXXXXXXX",
"XXXXXXXXXXXXXXXX........                ............ooooXXXXXXXX",
"XXXXXXXXooooXXXX........                ............XXXXXXXXXXXX",
"XXXXXXXXooooXXXX........                ............XXXXXXXXXXXX",
"XXXXXXXXooooXXXX........                ............XXXXXXXXXXXX",
"XXXXXXXXooooXXXX........                ............XXXXXXXXXXXX",
"XXXXooooXXXXXXXX........                    ........XXXXooooXXXX",
"XXXXooooXXXXXXXX........                    ........XXXXooooXXXX",
"XXXXooooXXXXXXXX........                    ........XXXXooooXXXX",
"XXXXooooXXXXXXXX........                    ........XXXXooooXXXX",
"ooooXXXXXXXXXXXX........                    ........XXXXXXXXXXXX",
"ooooXXXXXXXXXXXX........                    ........XXXXXXXXXXXX",
"ooooXXXXXXXXXXXX........                    ........XXXXXXXXXXXX",
"ooooXXXXXXXXXXXX........                    ........XXXXXXXXXXXX",
"XXXXXXXXoooo........                        ............XXXXoooo",
"XXXXXXXXoooo........                        ............XXXXoooo",
"XXXXXXXXoooo........                        ............XXXXoooo",
"XXXXXXXXoooo........                        ............XXXXoooo",
"XXXXooooXXXX........                        ............XXXXXXXX",
"XXXXooooXXXX........                        ............XXXXXXXX",
"XXXXooooXXXX........                        ............XXXXXXXX",
"XXXXooooXXXX........                        ............XXXXXXXX",
"ooooXXXXXXXX........                            ........ooooXXXX",
"ooooXXXXXXXX........                            ........ooooXXXX",
"ooooXXXXXXXX........                            ........ooooXXXX",
"ooooXXXXXXXX........                            ........ooooXXXX",
"XXXXXXXX............                            ............XXXX",
"XXXXXXXX............                            ............XXXX",
"XXXXXXXX............                            ............XXXX",
"XXXXXXXX............                            ............XXXX",
"XXXXXXXX........                                    ........XXXX",
"XXXXXXXX........                                    ........XXXX",
"XXXXXXXX........                                    ........XXXX",
"XXXXXXXX........                                    ........XXXX"
};
