/* XPM */
static char *exit_close64[] = {
/* columns rows colors chars-per-pixel */
"64 64 6 1 ",
"  c black",
". c #0E0F00",
"X c #2E0009",
"o c #6D3E0A",
"O c #8D5010",
"+ c #FA1944",
/* pixels */
"ooooooooooooooooooooOOOOooooooooooooooooOOOOoooooooooooooooooooo",
"ooooooooooooooooooooOOOOooooooooooooooooOOOOoooooooooooooooooooo",
"ooooooooooooooooooooOOOOooooooooooooooooOOOOoooooooooooooooooooo",
"ooooooooooooooooooooOOOOooooooooooooooooOOOOoooooooooooooooooooo",
"ooooOOOOOOOOooooooooooooooooOOOOooooooooooooooooooooOOOOOOOOoooo",
"ooooOOOOOOOOooooooooooooooooOOOOooooooooooooooooooooOOOOOOOOoooo",
"ooooOOOOOOOOooooooooooooooooOOOOooooooooooooooooooooOOOOOOOOoooo",
"ooooOOOOOOOOooooooooooooooooOOOOooooooooooooooooooooOOOOOOOOoooo",
"ooooooooooooOOOOooooooooooooooooooooooooOOOOoooooooooooooooooooo",
"ooooooooooooOOOOooooooooooooooooooooooooOOOOoooooooooooooooooooo",
"ooooooooooooOOOOooooooooooooooooooooooooOOOOoooooooooooooooooooo",
"ooooooooooooOOOOooooooooooooooooooooooooOOOOoooooooooooooooooooo",
"ooooOOOOOOOOooooooooooooXXXXXXXXXXXXXXXXooooooooooooOOOOoooooooo",
"ooooOOOOOOOOooooooooooooXXXXXXXXXXXXXXXXooooooooooooOOOOoooooooo",
"ooooOOOOOOOOooooooooooooXXXXXXXXXXXXXXXXooooooooooooOOOOoooooooo",
"ooooOOOOOOOOooooooooooooXXXXXXXXXXXXXXXXooooooooooooOOOOoooooooo",
"OOOOooooooooooooooooXXXXXXXXXXXXXXXXXXXXXXXXooooOOOOooooOOOOoooo",
"OOOOooooooooooooooooXXXXXXXXXXXXXXXXXXXXXXXXooooOOOOooooOOOOoooo",
"OOOOooooooooooooooooXXXXXXXXXXXXXXXXXXXXXXXXooooOOOOooooOOOOoooo",
"OOOOooooooooooooooooXXXXXXXXXXXXXXXXXXXXXXXXooooOOOOooooOOOOoooo",
"ooooooooooooooooooooXXXXXXXXXXXXXXXXXXXXXXXXXXXXoooooooooooooooo",
"ooooooooooooooooooooXXXXXXXXXXXXXXXXXXXXXXXXXXXXoooooooooooooooo",
"ooooooooooooooooooooXXXXXXXXXXXXXXXXXXXXXXXXXXXXoooooooooooooooo",
"ooooooooooooooooooooXXXXXXXXXXXXXXXXXXXXXXXXXXXXoooooooooooooooo",
"ooooOOOOooooOOOOooooXXXXXXXXXXXX    XXXXXXXXXXXXXXXXoooooooooooo",
"ooooOOOOooooOOOOooooXXXXXXXXXXXX    XXXXXXXXXXXXXXXXoooooooooooo",
"ooooOOOOooooOOOOooooXXXXXXXXXXXX    XXXXXXXXXXXXXXXXoooooooooooo",
"ooooOOOOooooOOOOooooXXXXXXXXXXXX    XXXXXXXXXXXXXXXXoooooooooooo",
"ooooooooooooooooXXXXXXXX                XXXXXXXXXXXXOOOOoooooooo",
"ooooooooooooooooXXXXXXXX                XXXXXXXXXXXXOOOOoooooooo",
"ooooooooooooooooXXXXXXXX                XXXXXXXXXXXXOOOOoooooooo",
"ooooooooooooooooXXXXXXXX                XXXXXXXXXXXXOOOOoooooooo",
"ooooooooOOOOooooXXXXXXXX                XXXXXXXXXXXXoooooooooooo",
"ooooooooOOOOooooXXXXXXXX                XXXXXXXXXXXXoooooooooooo",
"ooooooooOOOOooooXXXXXXXX                XXXXXXXXXXXXoooooooooooo",
"ooooooooOOOOooooXXXXXXXX                XXXXXXXXXXXXoooooooooooo",
"ooooOOOOooooooooXXXXXXXX                    XXXXXXXXooooOOOOoooo",
"ooooOOOOooooooooXXXXXXXX                    XXXXXXXXooooOOOOoooo",
"ooooOOOOooooooooXXXXXXXX                    XXXXXXXXooooOOOOoooo",
"ooooOOOOooooooooXXXXXXXX                    XXXXXXXXooooOOOOoooo",
"OOOOooooooooooooXXXXXXXX++++            ++++XXXXXXXXoooooooooooo",
"OOOOooooooooooooXXXXXXXX++++            ++++XXXXXXXXoooooooooooo",
"OOOOooooooooooooXXXXXXXX++++            ++++XXXXXXXXoooooooooooo",
"OOOOooooooooooooXXXXXXXX++++            ++++XXXXXXXXoooooooooooo",
"ooooooooOOOOXXXXXXXX        ++++    ++++....XXXXXXXXXXXXooooOOOO",
"ooooooooOOOOXXXXXXXX        ++++    ++++....XXXXXXXXXXXXooooOOOO",
"ooooooooOOOOXXXXXXXX        ++++    ++++....XXXXXXXXXXXXooooOOOO",
"ooooooooOOOOXXXXXXXX        ++++    ++++....XXXXXXXXXXXXooooOOOO",
"ooooOOOOooooXXXXXXXX            ++++    ....XXXXXXXXXXXXoooooooo",
"ooooOOOOooooXXXXXXXX            ++++    ....XXXXXXXXXXXXoooooooo",
"ooooOOOOooooXXXXXXXX            ++++    ....XXXXXXXXXXXXoooooooo",
"ooooOOOOooooXXXXXXXX            ++++    ....XXXXXXXXXXXXoooooooo",
"OOOOooooooooXXXXXXXX        ++++    ++++        XXXXXXXXOOOOoooo",
"OOOOooooooooXXXXXXXX        ++++    ++++        XXXXXXXXOOOOoooo",
"OOOOooooooooXXXXXXXX        ++++    ++++        XXXXXXXXOOOOoooo",
"OOOOooooooooXXXXXXXX        ++++    ++++        XXXXXXXXOOOOoooo",
"ooooooooXXXXXXXXXXXX    ++++            ++++    XXXXXXXXXXXXoooo",
"ooooooooXXXXXXXXXXXX    ++++            ++++    XXXXXXXXXXXXoooo",
"ooooooooXXXXXXXXXXXX    ++++            ++++    XXXXXXXXXXXXoooo",
"ooooooooXXXXXXXXXXXX    ++++            ++++    XXXXXXXXXXXXoooo",
"ooooooooXXXXXXXX    ++++                    ++++    XXXXXXXXoooo",
"ooooooooXXXXXXXX    ++++                    ++++    XXXXXXXXoooo",
"ooooooooXXXXXXXX    ++++                    ++++    XXXXXXXXoooo",
"ooooooooXXXXXXXX    ++++                    ++++    XXXXXXXXoooo"
};
